<?xml version="1.0" encoding="iso-8859-1"?>
<!-- Generator: Adobe Illustrator 17.1.0, SVG Export Plug-In . SVG Version: 6.00 Build 0)  -->
<!DOCTYPE svg PUBLIC "-//W3C//DTD SVG 1.1//EN" "http://www.w3.org/Graphics/SVG/1.1/DTD/svg11.dtd">
<svg version="1.1" id="Capa_1" xmlns="http://www.w3.org/2000/svg" xmlns:xlink="http://www.w3.org/1999/xlink" x="0px" y="0px"
	 viewBox="0 0 211.078 211.078" style="enable-background:new 0 0 211.078 211.078;" xml:space="preserve">
<path d="M105.471,211.078c-37.511,0-68.027-30.517-68.027-68.027v-0.987h-1.487c-11.568,0-20.98-9.411-20.98-20.979v-9.606
	c0-11.567,9.411-20.979,20.98-20.979h1.487V59.581c0-11.853,5.485-23.119,14.753-30.465c-0.332-1.606-0.506-3.262-0.506-4.943
	c0-4.318,2.3-8.755,6.152-11.867c0.039-0.031,0.078-0.062,0.119-0.091l2.334-1.666c0.082-0.059,0.168-0.112,0.258-0.161
	c0.363-0.197,0.773-0.445,1.244-0.728c2.2-1.319,5.523-3.313,11.02-4.99c7.577-2.485,15.576-3.941,24.415-4.438
	c33.875-1.907,64.061,8.079,73.374,24.27c0.004,0.007,0.007,0.013,0.011,0.02c1.202,1.946,1.999,3.408,2.774,5.074
	c7.62,16.389,1.421,33.591,0.106,36.863v24.04h1.624c11.568,0,20.979,9.411,20.979,20.979v9.606
	c0,11.568-9.411,20.979-20.979,20.979h-1.624v0.987C173.498,180.562,142.981,211.078,105.471,211.078z M42.443,139.563v3.487
	c0,34.753,28.274,63.027,63.027,63.027s63.027-28.274,63.027-63.027v-21.19h-4.429c-0.668,0-1.309-0.268-1.777-0.742
	c-0.47-0.476-0.73-1.118-0.723-1.786c0.004-0.29,0.303-29.082-1.926-37.997c-2.013-8.056-7.763-11.271-8.006-11.404
	c-0.597-0.325-1.041-0.882-1.221-1.537c-0.18-0.654-0.092-1.357,0.255-1.941c0.032-0.055,3.431-5.876,3.581-11.457
	c0.023-0.88-3.689-3.057-8.553-4.406c-5.291-1.099-9.329-1.029-9.431-1.027c-0.021,0.001-0.042,0.001-0.063,0.001h-52
	c-7.52,0-14.018-1.292-19.313-3.841c-0.886-0.427-1.738-0.908-2.555-1.44c-2.335,2.7-5.656,7.304-5.647,10.775
	c0.014,5.562,3.521,11.3,3.557,11.357c0.363,0.589,0.467,1.301,0.286,1.969c-0.182,0.668-0.631,1.23-1.242,1.555
	c-0.23,0.126-5.979,3.342-7.993,11.397c-2.229,8.918-1.93,37.707-1.926,37.997c0.008,0.668-0.253,1.311-0.723,1.786
	c-0.469,0.475-1.109,0.742-1.777,0.742h-4.429V139.563z M173.635,137.063h1.487c8.812,0,15.979-7.168,15.979-15.979v-9.606
	c0-8.811-7.168-15.979-15.979-15.979h-1.487V137.063z M35.956,95.499c-8.812,0-15.98,7.168-15.98,15.979v9.606
	c0,8.812,7.168,15.979,15.98,15.979h1.487V95.499H35.956z M166.585,116.86h1.913V66.595c-2.177-4.749-5.54-8.176-9.286-10.647
	c-0.299,4.373-1.991,8.562-3.147,10.971c2.526,1.973,6.664,6.138,8.431,13.204C166.493,88.119,166.608,109.462,166.585,116.86z
	 M42.443,116.86h1.913c-0.023-7.398,0.092-28.741,2.09-36.738c1.762-7.043,5.878-11.204,8.405-13.185
	c-1.272-2.576-3.149-7.171-3.161-11.869c-0.013-5.307,4.219-11.004,6.777-13.963c-1.923-1.964-3.5-4.273-4.647-6.826
	c-7.177,6.392-11.377,15.623-11.377,25.302V116.86z M136.651,44.479c3.392,0,23.563,0.639,33.743,15.312
	c0.354-1.348,0.71-2.916,1.002-4.647c-2.933-2.857-13.53-12.211-29.298-15.209c-11.022-2.096-24.043-1.284-36.633-0.499
	c-9.36,0.584-19.043,1.188-27.616,0.536c-8.314-0.632-14.077-2.801-18.019-5.228c1.808,2.759,4.321,5.017,7.343,6.452
	c4.592,2.182,10.319,3.288,17.021,3.288h52C136.26,44.482,136.415,44.479,136.651,44.479z M125.357,33.601
	c6.125,0,12.095,0.361,17.675,1.422c13.856,2.635,23.881,9.605,29.016,13.95c0.089-2.201,0.025-4.529-0.271-6.914
	c-6.97-6.977-19.329-11.842-35.825-14.09c-8.736-1.191-18.695,0.164-29.238,1.599c-10.626,1.445-21.612,2.94-31.5,1.64
	c-10.966-1.442-15.991-5.392-18.281-8.933c-0.158,0.638-0.241,1.275-0.241,1.898c0,0.235,0.004,0.471,0.013,0.704
	c0.813,1.572,5.431,8.887,21.525,10.108c8.229,0.627,17.312,0.059,26.926-0.54C111.87,34.026,118.705,33.601,125.357,33.601z
	 M128.721,22.521c2.713,0,5.358,0.146,7.906,0.492c13.972,1.904,25.27,5.679,33.214,11.042c-0.293-0.786-0.62-1.57-0.982-2.352
	c-0.706-1.516-1.441-2.856-2.538-4.628c-0.02-0.03-0.039-0.064-0.058-0.099c-8.29-14.376-37.189-23.512-68.751-21.753
	c-8.397,0.472-15.979,1.849-23.176,4.209c-0.03,0.011-0.066,0.021-0.098,0.03l0,0c-4.911,1.511-7.892,3.298-9.868,4.484
	c-0.48,0.288-0.906,0.543-1.288,0.756l-2.152,1.535c-0.292,0.239-0.572,0.489-0.84,0.75c0.315,1.97,2.399,7.501,15.775,9.261
	c9.221,1.214,19.874-0.235,30.173-1.637C113.631,23.58,121.414,22.521,128.721,22.521z M81.157,175.084
	c-0.312,0-0.621-0.061-0.956-0.192c-1.285-0.505-1.917-1.956-1.411-3.241c0.34-0.866,1.11-1.436,1.97-1.56
	c0.249-0.11,0.681-0.322,1.071-0.514c3.585-1.756,11.979-5.869,23.64-5.869c14.962,0,25.253,6.485,25.684,6.762
	c1.163,0.745,1.501,2.291,0.756,3.453c-0.744,1.163-2.292,1.5-3.453,0.756c-0.09-0.057-9.554-5.971-22.986-5.971
	c-10.501,0-18.167,3.756-21.44,5.359C82.768,174.687,81.956,175.084,81.157,175.084z M130.08,124.438
	c-9.638,0-17.605-7.844-17.762-17.484c-0.011-0.67,0.248-1.315,0.718-1.793c0.47-0.479,1.112-0.747,1.782-0.747h30.524
	c0.67,0,1.313,0.269,1.782,0.747c0.47,0.478,0.729,1.123,0.718,1.793C147.687,116.595,139.718,124.438,130.08,124.438z
	 M117.617,109.414c1.271,5.715,6.408,10.024,12.463,10.024c6.056,0,11.193-4.31,12.464-10.024H117.617z M81.116,124.249
	c-9.638,0-17.606-7.843-17.763-17.484c-0.011-0.67,0.248-1.315,0.718-1.793c0.47-0.479,1.112-0.747,1.782-0.747h30.525
	c0.67,0,1.313,0.269,1.782,0.747c0.47,0.478,0.729,1.123,0.718,1.793C98.723,116.406,90.754,124.249,81.116,124.249z
	 M68.652,109.225c1.271,5.715,6.408,10.024,12.464,10.024s11.193-4.31,12.464-10.024H68.652z M136.08,115.386
	c-1.381,0-2.5-1.119-2.5-2.5v-0.25c0-1.381,1.119-2.5,2.5-2.5s2.5,1.119,2.5,2.5v0.25
	C138.58,114.267,137.461,115.386,136.08,115.386z M87.116,115.196c-1.381,0-2.5-1.119-2.5-2.5v-0.25c0-1.381,1.119-2.5,2.5-2.5
	s2.5,1.119,2.5,2.5v0.25C89.616,114.077,88.497,115.196,87.116,115.196z M145.343,99.167h-30.524c-1.381,0-2.5-1.119-2.5-2.5
	s1.119-2.5,2.5-2.5h30.524c1.381,0,2.5,1.119,2.5,2.5S146.724,99.167,145.343,99.167z M96.379,99.167H65.854
	c-1.381,0-2.5-1.119-2.5-2.5s1.119-2.5,2.5-2.5h30.525c1.381,0,2.5,1.119,2.5,2.5S97.76,99.167,96.379,99.167z"/>
<g>
</g>
<g>
</g>
<g>
</g>
<g>
</g>
<g>
</g>
<g>
</g>
<g>
</g>
<g>
</g>
<g>
</g>
<g>
</g>
<g>
</g>
<g>
</g>
<g>
</g>
<g>
</g>
<g>
</g>
</svg>
