<?xml version="1.0" encoding="iso-8859-1"?>
<!-- Generator: Adobe Illustrator 19.0.0, SVG Export Plug-In . SVG Version: 6.00 Build 0)  -->
<svg version="1.1" id="Capa_1" xmlns="http://www.w3.org/2000/svg" xmlns:xlink="http://www.w3.org/1999/xlink" x="0px" y="0px"
	 viewBox="0 0 480.006 480.006" style="enable-background:new 0 0 480.006 480.006;" xml:space="preserve">
<g>
	<g>
		<rect x="40.003" y="48.006" width="104" height="16"/>
	</g>
</g>
<g>
	<g>
		<rect x="40.003" y="80.006" width="104" height="16"/>
	</g>
</g>
<g>
	<g>
		<rect x="40.003" y="112.006" width="72" height="16"/>
	</g>
</g>
<g>
	<g>
		<rect x="40.003" y="144.006" width="72" height="16"/>
	</g>
</g>
<g>
	<g>
		<rect x="0.003" y="464.006" width="480" height="16"/>
	</g>
</g>
<g>
	<g>
		<path d="M463.163,68.43l-32-64c-1.973-3.954-6.776-5.56-10.73-3.587c-0.002,0.001-0.004,0.002-0.006,0.003l-64,32
			c-3.954,1.975-5.559,6.782-3.584,10.736s6.782,5.559,10.736,3.584l46.352-23.16l-12.648,36.112
			C341.69,218.446,198.501,329.522,31.323,344.006l1.36,16C206.16,344.978,354.737,229.701,412.395,65.398l12.912-36.896
			l23.536,47.08c1.975,3.954,6.782,5.559,10.736,3.584C463.534,77.191,465.138,72.385,463.163,68.43z"/>
	</g>
</g>
<g>
	<g>
		<path d="M96.003,384.006h-56c-4.418,0-8,3.582-8,8v48c0,4.418,3.582,8,8,8h56c4.418,0,8-3.582,8-8v-48
			C104.003,387.588,100.421,384.006,96.003,384.006z M88.003,432.006h-40v-32h40V432.006z"/>
	</g>
</g>
<g>
	<g>
		<path d="M184.003,360.006h-56c-4.418,0-8,3.582-8,8v72c0,4.418,3.582,8,8,8h56c4.418,0,8-3.582,8-8v-72
			C192.003,363.588,188.421,360.006,184.003,360.006z M176.003,432.006h-40v-56h40V432.006z"/>
	</g>
</g>
<g>
	<g>
		<path d="M272.003,320.006h-56c-4.418,0-8,3.582-8,8v112c0,4.418,3.582,8,8,8h56c4.418,0,8-3.582,8-8v-112
			C280.003,323.588,276.421,320.006,272.003,320.006z M264.003,432.006h-40v-96h40V432.006z"/>
	</g>
</g>
<g>
	<g>
		<path d="M360.003,264.006h-56c-4.418,0-8,3.582-8,8v168c0,4.418,3.582,8,8,8h56c4.418,0,8-3.582,8-8v-168
			C368.003,267.588,364.421,264.006,360.003,264.006z M352.003,432.006h-40v-152h40V432.006z"/>
	</g>
</g>
<g>
	<g>
		<path d="M448.003,152.006h-56c-4.418,0-8,3.582-8,8v280c0,4.418,3.582,8,8,8h56c4.418,0,8-3.582,8-8v-280
			C456.003,155.588,452.421,152.006,448.003,152.006z M440.003,432.006h-40v-264h40V432.006z"/>
	</g>
</g>
<g>
</g>
<g>
</g>
<g>
</g>
<g>
</g>
<g>
</g>
<g>
</g>
<g>
</g>
<g>
</g>
<g>
</g>
<g>
</g>
<g>
</g>
<g>
</g>
<g>
</g>
<g>
</g>
<g>
</g>
</svg>
